<?xml version="1.0" encoding="utf-8"?>
<!-- Generator: Adobe Illustrator 21.1.0, SVG Export Plug-In . SVG Version: 6.00 Build 0)  -->
<svg version="1.1" id="圖層_1" xmlns="http://www.w3.org/2000/svg" xmlns:xlink="http://www.w3.org/1999/xlink" x="0px" y="0px"
	 viewBox="0 0 576 512" style="enable-background:new 0 0 576 512;" xml:space="preserve">
<style type="text/css">
	.st0{fill:#333333;}
</style>
<path class="st0" d="M480,416v16c0,26.5-21.5,48-48,48H48c-26.5,0-48-21.5-48-48V176c0-26.5,21.5-48,48-48h16v48H54
	c-3.3,0-6,2.7-6,6v244c0,3.3,2.7,6,6,6h372c3.3,0,6-2.7,6-6v-10H480z M522,80H150c-3.3,0-6,2.7-6,6v244c0,3.3,2.7,6,6,6h372
	c3.3,0,6-2.7,6-6V86C528,82.7,525.3,80,522,80z M528,32c26.5,0,48,21.5,48,48v256c0,26.5-21.5,48-48,48H144c-26.5,0-48-21.5-48-48
	V80c0-26.5,21.5-48,48-48H528z M264,144c0,22.1-17.9,40-40,40s-40-17.9-40-40s17.9-40,40-40S264,121.9,264,144z M192,240l39.5-39.5
	c4.7-4.7,12.3-4.7,17,0L288,240l103.5-103.5c4.7-4.7,12.3-4.7,17,0L480,208v80H192V240z"/>
</svg>
